# xmcd
# 
# Track frame offsets:
#     150
#     15234
#     29636
#     42651
#     58716
#     76623
#     95832
#     112330
#     135102
#     153126
#     171357
#     190022
#     209478
#     225966
# 
# Disc length: 3266
# 
# Revision: 1
# Processed by: cddbd v1.5.2PL0 Copyright (c) Steve Scherf et al.
# Submitted via: fre:ac v1.0.27
# 
DISCID=af0cc00e
DTITLE=The Damn Quails - Down The Hatch
DYEAR=2011
DGENRE=Oklahoma Red Dirt
TTITLE0=Better Place To Stop
TTITLE1=Midnight Swagger
TTITLE2=Through The Fire
TTITLE3=Another Story
TTITLE4=Quicksand
TTITLE5=Fool's Gold
TTITLE6=Parachute
TTITLE7=California
TTITLE8=So So Long
TTITLE9=Mary
TTITLE10=Me And The Whiskey
TTITLE11=Ice Man
TTITLE12=Down
TTITLE13=Dollars
EXTD=
EXTT0=
EXTT1=
EXTT2=
EXTT3=
EXTT4=
EXTT5=
EXTT6=
EXTT7=
EXTT8=
EXTT9=
EXTT10=
EXTT11=
EXTT12=
EXTT13=
PLAYORDER=
